<svg xmlns="http://www.w3.org/2000/svg" version="1" viewBox="0 0 68.635 110"><style>path{fill:red}</style><path d="M46.68 64.517C74.499 19.438 27.205 0 27.205 0c12.164 10.145 16.409 44.657-5.868 45.114-15.803.324-13.06-16.622-11.361-20.197-1.779 2.521-13.748 23.712-8.775 45.086 4.974 21.375 35.042 29.845 35.042 29.845-6.22-18.635 5.673-27.678 10.437-35.331z"/><path d="M59.161 38.038c2.465 4.582-2.596 23.759-9.987 32.491-13.705 16.23-9.383 24.461-8.313 28.29.169-.4 1.947-2.261 14.586-10.921 27.324-18.675 3.714-49.86 3.714-49.86zm-18.268 60.89c-.009-.035-.022-.072-.031-.109-.049.112.031.109.031.109zM9.976 24.917c.146-.209.237-.328.237-.328a.84.84 0 0 0-.237.328z"/></svg>